<svg xmlns="http://www.w3.org/2000/svg" width="30.375" height="36" viewBox="0 0 30.375 36">
  <g id="cart" transform="translate(-40)">
    <path id="Trazado_1" data-name="Trazado 1" d="M70.375,9.844v13.5a1.406,1.406,0,0,1-2.813,0V11.25H64.75v4.219a1.406,1.406,0,0,1-2.813,0V11.25h-13.5v4.219a1.406,1.406,0,1,1-2.812,0V11.25H42.813V33.187H57.719a1.406,1.406,0,0,1,0,2.813H41.406A1.406,1.406,0,0,1,40,34.594V9.844a1.406,1.406,0,0,1,1.406-1.406h4.285a9.562,9.562,0,0,1,18.992,0h4.285A1.406,1.406,0,0,1,70.375,9.844ZM61.843,8.437a6.75,6.75,0,0,0-13.311,0Z" fill="#2bb6bf"/>
  </g>
</svg>
